<svg class="marks" width="813" height="471" viewBox="0 0 813 471" version="1.1" xmlns="http://www.w3.org/2000/svg" xmlns:xlink="http://www.w3.org/1999/xlink"><rect width="813" height="471" style="fill: white;"></rect><g transform="translate(97,50)"><g class="mark-group role-frame root"><g transform="translate(0,0)"><path class="background" d="M0,0h600v400h-600Z" style="fill: none;"></path><g><g class="mark-rect role-mark marks"><path d="M3.3333333333333144,288h60.00000000000001v112h-60.00000000000001Z" style="fill: #185594; opacity: 0.95;"></path><path d="M69.99999999999999,179.99999999999997h60.00000000000001v220.00000000000003h-60.00000000000001Z" style="fill: #A51E22; opacity: 0.95;"></path><path d="M136.66666666666666,228h60.00000000000001v172h-60.00000000000001Z" style="fill: #4A443F; opacity: 0.95;"></path><path d="M203.33333333333331,36h60.00000000000001v364h-60.00000000000001Z" style="fill: #15A85C; opacity: 0.95;"></path><path d="M270,76h60.00000000000001v324h-60.00000000000001Z" style="fill: #E21E26; opacity: 0.95;"></path><path d="M336.6666666666667,188h60.00000000000001v212h-60.00000000000001Z" style="fill: #185594; opacity: 0.95;"></path><path d="M403.3333333333333,324h60.00000000000001v76h-60.00000000000001Z" style="fill: #4D3091; opacity: 0.95;"></path><path d="M470,52h60.00000000000001v348h-60.00000000000001Z" style="fill: #068945; opacity: 0.95;"></path><path d="M536.6666666666667,192h60.00000000000001v208h-60.00000000000001Z" style="fill: #1C4421; opacity: 0.95;"></path></g><g class="mark-group role-legend"><g transform="translate(618,0)"><path class="background" d="M0,0h93v160h-93Z" style="pointer-events: none; fill: none;"></path><g><g class="mark-group role-legend-entry"><g transform="translate(10,26)"><path class="background" d="M0,0h0v0h0Z" style="pointer-events: none; fill: none;"></path><g><g class="mark-group role-scope"><g transform="translate(0,0)"><path class="background" d="M0,0h72.576171875v12h-72.576171875Z" style="pointer-events: none; fill: none; opacity: 1;"></path><g><g class="mark-symbol role-legend-symbol" style="pointer-events: none;"><path transform="translate(6,6)" d="M-5,-5h10v10h-10Z" style="fill: #185594; stroke-width: 1.5; opacity: 1;"></path></g><g class="mark-text role-legend-label" style="pointer-events: none;"><text text-anchor="start" transform="translate(16,9)" style="font-family: sans-serif; font-size: 10px; fill: #000; opacity: 1;">Birch Lane</text></g></g></g><g transform="translate(0,14)"><path class="background" d="M0,0h72.576171875v12h-72.576171875Z" style="pointer-events: none; fill: none; opacity: 1;"></path><g><g class="mark-symbol role-legend-symbol" style="pointer-events: none;"><path transform="translate(6,6)" d="M-5,-5h10v10h-10Z" style="fill: #A51E22; stroke-width: 1.5; opacity: 1;"></path></g><g class="mark-text role-legend-label" style="pointer-events: none;"><text text-anchor="start" transform="translate(16,9)" style="font-family: sans-serif; font-size: 10px; fill: #000; opacity: 1;">Chávez</text></g></g></g><g transform="translate(0,28)"><path class="background" d="M0,0h72.576171875v12h-72.576171875Z" style="pointer-events: none; fill: none; opacity: 1;"></path><g><g class="mark-symbol role-legend-symbol" style="pointer-events: none;"><path transform="translate(6,6)" d="M-5,-5h10v10h-10Z" style="fill: #4A443F; stroke-width: 1.5; opacity: 1;"></path></g><g class="mark-text role-legend-label" style="pointer-events: none;"><text text-anchor="start" transform="translate(16,9)" style="font-family: sans-serif; font-size: 10px; fill: #000; opacity: 1;">Fairfield</text></g></g></g><g transform="translate(0,42)"><path class="background" d="M0,0h72.576171875v12h-72.576171875Z" style="pointer-events: none; fill: none; opacity: 1;"></path><g><g class="mark-symbol role-legend-symbol" style="pointer-events: none;"><path transform="translate(6,6)" d="M-5,-5h10v10h-10Z" style="fill: #15A85C; stroke-width: 1.5; opacity: 1;"></path></g><g class="mark-text role-legend-label" style="pointer-events: none;"><text text-anchor="start" transform="translate(16,9)" style="font-family: sans-serif; font-size: 10px; fill: #000; opacity: 1;">Korematsu</text></g></g></g><g transform="translate(0,56)"><path class="background" d="M0,0h72.576171875v12h-72.576171875Z" style="pointer-events: none; fill: none; opacity: 1;"></path><g><g class="mark-symbol role-legend-symbol" style="pointer-events: none;"><path transform="translate(6,6)" d="M-5,-5h10v10h-10Z" style="fill: #E21E26; stroke-width: 1.5; opacity: 1;"></path></g><g class="mark-text role-legend-label" style="pointer-events: none;"><text text-anchor="start" transform="translate(16,9)" style="font-family: sans-serif; font-size: 10px; fill: #000; opacity: 1;">Montgomery</text></g></g></g><g transform="translate(0,70)"><path class="background" d="M0,0h72.576171875v12h-72.576171875Z" style="pointer-events: none; fill: none; opacity: 1;"></path><g><g class="mark-symbol role-legend-symbol" style="pointer-events: none;"><path transform="translate(6,6)" d="M-5,-5h10v10h-10Z" style="fill: #185594; stroke-width: 1.5; opacity: 1;"></path></g><g class="mark-text role-legend-label" style="pointer-events: none;"><text text-anchor="start" transform="translate(16,9)" style="font-family: sans-serif; font-size: 10px; fill: #000; opacity: 1;">North Davis</text></g></g></g><g transform="translate(0,84)"><path class="background" d="M0,0h72.576171875v12h-72.576171875Z" style="pointer-events: none; fill: none; opacity: 1;"></path><g><g class="mark-symbol role-legend-symbol" style="pointer-events: none;"><path transform="translate(6,6)" d="M-5,-5h10v10h-10Z" style="fill: #4D3091; stroke-width: 1.5; opacity: 1;"></path></g><g class="mark-text role-legend-label" style="pointer-events: none;"><text text-anchor="start" transform="translate(16,9)" style="font-family: sans-serif; font-size: 10px; fill: #000; opacity: 1;">Patwin</text></g></g></g><g transform="translate(0,98)"><path class="background" d="M0,0h72.576171875v12h-72.576171875Z" style="pointer-events: none; fill: none; opacity: 1;"></path><g><g class="mark-symbol role-legend-symbol" style="pointer-events: none;"><path transform="translate(6,6)" d="M-5,-5h10v10h-10Z" style="fill: #068945; stroke-width: 1.5; opacity: 1;"></path></g><g class="mark-text role-legend-label" style="pointer-events: none;"><text text-anchor="start" transform="translate(16,9)" style="font-family: sans-serif; font-size: 10px; fill: #000; opacity: 1;">Pioneer</text></g></g></g><g transform="translate(0,112)"><path class="background" d="M0,0h72.576171875v12h-72.576171875Z" style="pointer-events: none; fill: none; opacity: 1;"></path><g><g class="mark-symbol role-legend-symbol" style="pointer-events: none;"><path transform="translate(6,6)" d="M-5,-5h10v10h-10Z" style="fill: #1C4421; stroke-width: 1.5; opacity: 1;"></path></g><g class="mark-text role-legend-label" style="pointer-events: none;"><text text-anchor="start" transform="translate(16,9)" style="font-family: sans-serif; font-size: 10px; fill: #000; opacity: 1;">Willet</text></g></g></g></g></g></g></g><g class="mark-text role-legend-title" style="pointer-events: none;"><text text-anchor="start" transform="translate(10,19)" style="font-family: helvetica; font-size: 11px; font-weight: bold; fill: #000; opacity: 1;">School</text></g></g></g></g><g class="mark-text role-title" style="pointer-events: none;"><text text-anchor="start" transform="translate(-90.9140625,-30)" style="font-family: helvetica; font-size: 18px; font-weight: bold; fill: #000; opacity: 1;">Example 1</text></g><g class="mark-group role-axis"><g transform="translate(0.5,400.5)"><path class="background" d="M0,0h0v0h0Z" style="pointer-events: none; fill: none;"></path><g><g class="mark-rule role-axis-tick" style="pointer-events: none;"><line transform="translate(32,0)" x2="0" y2="5" style="fill: none; stroke: #888; stroke-width: 1; opacity: 1;"></line><line transform="translate(99,0)" x2="0" y2="5" style="fill: none; stroke: #888; stroke-width: 1; opacity: 1;"></line><line transform="translate(166,0)" x2="0" y2="5" style="fill: none; stroke: #888; stroke-width: 1; opacity: 1;"></line><line transform="translate(232,0)" x2="0" y2="5" style="fill: none; stroke: #888; stroke-width: 1; opacity: 1;"></line><line transform="translate(299,0)" x2="0" y2="5" style="fill: none; stroke: #888; stroke-width: 1; opacity: 1;"></line><line transform="translate(366,0)" x2="0" y2="5" style="fill: none; stroke: #888; stroke-width: 1; opacity: 1;"></line><line transform="translate(432,0)" x2="0" y2="5" style="fill: none; stroke: #888; stroke-width: 1; opacity: 1;"></line><line transform="translate(499,0)" x2="0" y2="5" style="fill: none; stroke: #888; stroke-width: 1; opacity: 1;"></line><line transform="translate(566,0)" x2="0" y2="5" style="fill: none; stroke: #888; stroke-width: 1; opacity: 1;"></line></g><g class="mark-text role-axis-label" style="pointer-events: none;"><text text-anchor="middle" transform="translate(32.333333333333314,13)" style="font-family: sans-serif; font-size: 10px; fill: #282828; opacity: 1;">Birch Lane</text><text text-anchor="middle" transform="translate(98.99999999999999,13)" style="font-family: sans-serif; font-size: 10px; fill: #282828; opacity: 1;">Chávez</text><text text-anchor="middle" transform="translate(165.66666666666666,13)" style="font-family: sans-serif; font-size: 10px; fill: #282828; opacity: 1;">Fairfield</text><text text-anchor="middle" transform="translate(232.33333333333331,13)" style="font-family: sans-serif; font-size: 10px; fill: #282828; opacity: 1;">Korematsu</text><text text-anchor="middle" transform="translate(299,13)" style="font-family: sans-serif; font-size: 10px; fill: #282828; opacity: 1;">Montgomery</text><text text-anchor="middle" transform="translate(365.6666666666667,13)" style="font-family: sans-serif; font-size: 10px; fill: #282828; opacity: 1;">North Davis</text><text text-anchor="middle" transform="translate(432.3333333333333,13)" style="font-family: sans-serif; font-size: 10px; fill: #282828; opacity: 1;">Patwin</text><text text-anchor="middle" transform="translate(499,13)" style="font-family: sans-serif; font-size: 10px; fill: #282828; opacity: 1;">Pioneer</text><text text-anchor="middle" transform="translate(565.6666666666667,13)" style="font-family: sans-serif; font-size: 10px; fill: #282828; opacity: 1;">Willet</text></g><g class="mark-rule role-axis-domain" style="pointer-events: none;"><line transform="translate(0,0)" x2="600" y2="0" style="fill: none; stroke: #888; stroke-width: 1; opacity: 1;"></line></g></g></g></g><g class="mark-group role-axis"><g transform="translate(0.5,0.5)"><path class="background" d="M0,0h0v0h0Z" style="pointer-events: none; fill: none;"></path><g><g class="mark-rule role-axis-tick" style="pointer-events: none;"><line transform="translate(0,400)" x2="-5" y2="0" style="fill: none; stroke: #888; stroke-width: 1; opacity: 1;"></line><line transform="translate(0,360)" x2="-5" y2="0" style="fill: none; stroke: #888; stroke-width: 1; opacity: 1;"></line><line transform="translate(0,320)" x2="-5" y2="0" style="fill: none; stroke: #888; stroke-width: 1; opacity: 1;"></line><line transform="translate(0,280)" x2="-5" y2="0" style="fill: none; stroke: #888; stroke-width: 1; opacity: 1;"></line><line transform="translate(0,240)" x2="-5" y2="0" style="fill: none; stroke: #888; stroke-width: 1; opacity: 1;"></line><line transform="translate(0,200)" x2="-5" y2="0" style="fill: none; stroke: #888; stroke-width: 1; opacity: 1;"></line><line transform="translate(0,160)" x2="-5" y2="0" style="fill: none; stroke: #888; stroke-width: 1; opacity: 1;"></line><line transform="translate(0,120)" x2="-5" y2="0" style="fill: none; stroke: #888; stroke-width: 1; opacity: 1;"></line><line transform="translate(0,80)" x2="-5" y2="0" style="fill: none; stroke: #888; stroke-width: 1; opacity: 1;"></line><line transform="translate(0,40)" x2="-5" y2="0" style="fill: none; stroke: #888; stroke-width: 1; opacity: 1;"></line><line transform="translate(0,0)" x2="-5" y2="0" style="fill: none; stroke: #888; stroke-width: 1; opacity: 1;"></line></g><g class="mark-text role-axis-label" style="pointer-events: none;"><text text-anchor="end" transform="translate(-10,403)" style="font-family: sans-serif; font-size: 10px; fill: #282828; opacity: 1;">0</text><text text-anchor="end" transform="translate(-10,363)" style="font-family: sans-serif; font-size: 10px; fill: #282828; opacity: 1;">10</text><text text-anchor="end" transform="translate(-10,323)" style="font-family: sans-serif; font-size: 10px; fill: #282828; opacity: 1;">20</text><text text-anchor="end" transform="translate(-10,283)" style="font-family: sans-serif; font-size: 10px; fill: #282828; opacity: 1;">30</text><text text-anchor="end" transform="translate(-10,243)" style="font-family: sans-serif; font-size: 10px; fill: #282828; opacity: 1;">40</text><text text-anchor="end" transform="translate(-10,203)" style="font-family: sans-serif; font-size: 10px; fill: #282828; opacity: 1;">50</text><text text-anchor="end" transform="translate(-10,163)" style="font-family: sans-serif; font-size: 10px; fill: #282828; opacity: 1;">60</text><text text-anchor="end" transform="translate(-10,123)" style="font-family: sans-serif; font-size: 10px; fill: #282828; opacity: 1;">70</text><text text-anchor="end" transform="translate(-10,83)" style="font-family: sans-serif; font-size: 10px; fill: #282828; opacity: 1;">80</text><text text-anchor="end" transform="translate(-10,43)" style="font-family: sans-serif; font-size: 10px; fill: #282828; opacity: 1;">90</text><text text-anchor="end" transform="translate(-10,3)" style="font-family: sans-serif; font-size: 10px; fill: #282828; opacity: 1;">100</text></g><g class="mark-rule role-axis-domain" style="pointer-events: none;"><line transform="translate(0,400)" x2="0" y2="-400" style="fill: none; stroke: #888; stroke-width: 1; opacity: 1;"></line></g><g class="mark-text role-axis-title" style="pointer-events: none;"><text text-anchor="middle" transform="translate(-48,197)" style="font-family: helvetica; font-size: 16px; font-weight: bold; fill: #282828; opacity: 1;">value</text></g></g></g></g></g></g></g></g></svg>